<mxfile host="app.diagrams.net" modified="2022-05-02T19:46:54.460Z" agent="5.0 (Windows NT 10.0; Win64; x64) AppleWebKit/537.36 (KHTML, like Gecko) Chrome/100.0.4896.127 Safari/537.36" etag="YuMXeHYrkzMFIbqhasBc" version="17.5.0" type="github">
  <diagram id="p09-NaNRiHKWQM71FGG_" name="Page-1">
    <mxGraphModel dx="822" dy="1602" grid="1" gridSize="10" guides="1" tooltips="1" connect="1" arrows="1" fold="1" page="0" pageScale="1" pageWidth="850" pageHeight="1100" math="0" shadow="0">
      <root>
        <mxCell id="0" />
        <mxCell id="1" parent="0" />
        <mxCell id="0zj1C-nigG1xQxZMRHKD-30" value="" style="edgeStyle=orthogonalEdgeStyle;rounded=0;orthogonalLoop=1;jettySize=auto;html=1;" parent="1" source="0zj1C-nigG1xQxZMRHKD-1" target="0zj1C-nigG1xQxZMRHKD-29" edge="1">
          <mxGeometry relative="1" as="geometry" />
        </mxCell>
        <mxCell id="0zj1C-nigG1xQxZMRHKD-31" value="&lt;font style=&quot;font-size: 8px&quot;&gt;Gets Page Configuration&lt;/font&gt;" style="edgeLabel;html=1;align=center;verticalAlign=middle;resizable=0;points=[];fontStyle=1" parent="0zj1C-nigG1xQxZMRHKD-30" vertex="1" connectable="0">
          <mxGeometry x="0.2333" relative="1" as="geometry">
            <mxPoint x="26" as="offset" />
          </mxGeometry>
        </mxCell>
        <mxCell id="0zj1C-nigG1xQxZMRHKD-1" value="MainView" style="rounded=0;whiteSpace=wrap;html=1;" parent="1" vertex="1">
          <mxGeometry x="380" y="190" width="120" height="60" as="geometry" />
        </mxCell>
        <mxCell id="7XTS30OKe321MT3zy4zL-5" value="" style="edgeStyle=orthogonalEdgeStyle;rounded=0;orthogonalLoop=1;jettySize=auto;html=1;fontSize=11;endArrow=block;endFill=1;" parent="1" source="0zj1C-nigG1xQxZMRHKD-2" target="0zj1C-nigG1xQxZMRHKD-4" edge="1">
          <mxGeometry relative="1" as="geometry" />
        </mxCell>
        <mxCell id="7XTS30OKe321MT3zy4zL-9" value="Renders" style="edgeLabel;html=1;align=center;verticalAlign=middle;resizable=0;points=[];fontSize=11;" parent="7XTS30OKe321MT3zy4zL-5" vertex="1" connectable="0">
          <mxGeometry x="0.3" y="1" relative="1" as="geometry">
            <mxPoint x="-1" y="-9" as="offset" />
          </mxGeometry>
        </mxCell>
        <mxCell id="0zj1C-nigG1xQxZMRHKD-2" value="Filter Panel" style="rounded=0;whiteSpace=wrap;html=1;" parent="1" vertex="1">
          <mxGeometry x="120" y="330" width="120" height="60" as="geometry" />
        </mxCell>
        <mxCell id="0zj1C-nigG1xQxZMRHKD-3" value="Table View" style="rounded=0;whiteSpace=wrap;html=1;" parent="1" vertex="1">
          <mxGeometry x="560" y="330" width="120" height="60" as="geometry" />
        </mxCell>
        <mxCell id="7XTS30OKe321MT3zy4zL-6" value="" style="edgeStyle=orthogonalEdgeStyle;rounded=0;orthogonalLoop=1;jettySize=auto;html=1;fontSize=11;endArrow=block;endFill=1;" parent="1" source="0zj1C-nigG1xQxZMRHKD-4" target="0zj1C-nigG1xQxZMRHKD-5" edge="1">
          <mxGeometry relative="1" as="geometry" />
        </mxCell>
        <mxCell id="7XTS30OKe321MT3zy4zL-10" value="Renders" style="edgeLabel;html=1;align=center;verticalAlign=middle;resizable=0;points=[];fontSize=11;" parent="7XTS30OKe321MT3zy4zL-6" vertex="1" connectable="0">
          <mxGeometry x="0.2629" y="3" relative="1" as="geometry">
            <mxPoint x="-2" y="-6" as="offset" />
          </mxGeometry>
        </mxCell>
        <mxCell id="0zj1C-nigG1xQxZMRHKD-4" value="Action Toolbar" style="rounded=0;whiteSpace=wrap;html=1;" parent="1" vertex="1">
          <mxGeometry x="120" y="450" width="120" height="60" as="geometry" />
        </mxCell>
        <mxCell id="7XTS30OKe321MT3zy4zL-7" value="" style="edgeStyle=orthogonalEdgeStyle;rounded=0;orthogonalLoop=1;jettySize=auto;html=1;fontSize=11;endArrow=block;endFill=1;" parent="1" source="0zj1C-nigG1xQxZMRHKD-5" target="0zj1C-nigG1xQxZMRHKD-8" edge="1">
          <mxGeometry relative="1" as="geometry">
            <Array as="points">
              <mxPoint x="180" y="640" />
              <mxPoint x="180" y="640" />
            </Array>
          </mxGeometry>
        </mxCell>
        <mxCell id="7XTS30OKe321MT3zy4zL-11" value="Renders" style="edgeLabel;html=1;align=center;verticalAlign=middle;resizable=0;points=[];fontSize=11;" parent="7XTS30OKe321MT3zy4zL-7" vertex="1" connectable="0">
          <mxGeometry x="0.3095" relative="1" as="geometry">
            <mxPoint y="-9" as="offset" />
          </mxGeometry>
        </mxCell>
        <mxCell id="0zj1C-nigG1xQxZMRHKD-5" value="Action Button" style="rounded=0;whiteSpace=wrap;html=1;" parent="1" vertex="1">
          <mxGeometry x="120" y="560" width="120" height="60" as="geometry" />
        </mxCell>
        <mxCell id="7XTS30OKe321MT3zy4zL-8" value="" style="edgeStyle=orthogonalEdgeStyle;rounded=0;orthogonalLoop=1;jettySize=auto;html=1;fontSize=11;endArrow=block;endFill=1;" parent="1" source="0zj1C-nigG1xQxZMRHKD-8" target="0zj1C-nigG1xQxZMRHKD-9" edge="1">
          <mxGeometry relative="1" as="geometry" />
        </mxCell>
        <mxCell id="7XTS30OKe321MT3zy4zL-12" value="Renders" style="edgeLabel;html=1;align=center;verticalAlign=middle;resizable=0;points=[];fontSize=11;" parent="7XTS30OKe321MT3zy4zL-8" vertex="1" connectable="0">
          <mxGeometry x="-0.319" y="-1" relative="1" as="geometry">
            <mxPoint y="4" as="offset" />
          </mxGeometry>
        </mxCell>
        <mxCell id="0zj1C-nigG1xQxZMRHKD-8" value="Filter Group" style="rounded=0;whiteSpace=wrap;html=1;" parent="1" vertex="1">
          <mxGeometry x="120" y="680" width="120" height="60" as="geometry" />
        </mxCell>
        <mxCell id="0zj1C-nigG1xQxZMRHKD-9" value="Filter" style="rounded=0;whiteSpace=wrap;html=1;" parent="1" vertex="1">
          <mxGeometry x="120" y="800" width="120" height="60" as="geometry" />
        </mxCell>
        <mxCell id="0zj1C-nigG1xQxZMRHKD-12" value="Table Data Service" style="rounded=0;whiteSpace=wrap;html=1;" parent="1" vertex="1">
          <mxGeometry x="380" y="480" width="120" height="60" as="geometry" />
        </mxCell>
        <mxCell id="0zj1C-nigG1xQxZMRHKD-15" value="" style="endArrow=classic;html=1;rounded=0;exitX=0.5;exitY=1;exitDx=0;exitDy=0;entryX=1.03;entryY=0.36;entryDx=0;entryDy=0;entryPerimeter=0;" parent="1" source="0zj1C-nigG1xQxZMRHKD-3" target="0zj1C-nigG1xQxZMRHKD-12" edge="1">
          <mxGeometry width="50" height="50" relative="1" as="geometry">
            <mxPoint x="580" y="410" as="sourcePoint" />
            <mxPoint x="750" y="480" as="targetPoint" />
            <Array as="points">
              <mxPoint x="620" y="500" />
            </Array>
          </mxGeometry>
        </mxCell>
        <mxCell id="0zj1C-nigG1xQxZMRHKD-16" value="Observes Changes" style="edgeLabel;html=1;align=center;verticalAlign=middle;resizable=0;points=[];" parent="0zj1C-nigG1xQxZMRHKD-15" vertex="1" connectable="0">
          <mxGeometry x="0.3111" y="-1" relative="1" as="geometry">
            <mxPoint x="38" y="-40" as="offset" />
          </mxGeometry>
        </mxCell>
        <mxCell id="0zj1C-nigG1xQxZMRHKD-17" value="" style="endArrow=classic;html=1;rounded=0;exitX=1.017;exitY=0.617;exitDx=0;exitDy=0;exitPerimeter=0;" parent="1" source="0zj1C-nigG1xQxZMRHKD-2" edge="1">
          <mxGeometry width="50" height="50" relative="1" as="geometry">
            <mxPoint x="270" y="390" as="sourcePoint" />
            <mxPoint x="440" y="480" as="targetPoint" />
            <Array as="points">
              <mxPoint x="440" y="367" />
            </Array>
          </mxGeometry>
        </mxCell>
        <mxCell id="0zj1C-nigG1xQxZMRHKD-18" value="Search Event" style="edgeLabel;html=1;align=center;verticalAlign=middle;resizable=0;points=[];" parent="0zj1C-nigG1xQxZMRHKD-17" vertex="1" connectable="0">
          <mxGeometry x="-0.1783" relative="1" as="geometry">
            <mxPoint as="offset" />
          </mxGeometry>
        </mxCell>
        <mxCell id="0zj1C-nigG1xQxZMRHKD-19" value="" style="endArrow=classic;html=1;rounded=0;exitX=0;exitY=0.5;exitDx=0;exitDy=0;" parent="1" source="0zj1C-nigG1xQxZMRHKD-5" edge="1">
          <mxGeometry width="50" height="50" relative="1" as="geometry">
            <mxPoint x="70" y="410" as="sourcePoint" />
            <mxPoint x="120" y="360" as="targetPoint" />
            <Array as="points">
              <mxPoint x="80" y="590" />
              <mxPoint x="80" y="360" />
            </Array>
          </mxGeometry>
        </mxCell>
        <mxCell id="0zj1C-nigG1xQxZMRHKD-20" value="Emit&amp;nbsp; Event" style="edgeLabel;html=1;align=center;verticalAlign=middle;resizable=0;points=[];" parent="0zj1C-nigG1xQxZMRHKD-19" vertex="1" connectable="0">
          <mxGeometry x="-0.088" relative="1" as="geometry">
            <mxPoint as="offset" />
          </mxGeometry>
        </mxCell>
        <mxCell id="0zj1C-nigG1xQxZMRHKD-22" value="" style="endArrow=classic;html=1;rounded=0;exitX=0.5;exitY=1;exitDx=0;exitDy=0;" parent="1" edge="1">
          <mxGeometry width="50" height="50" relative="1" as="geometry">
            <mxPoint x="440" y="250" as="sourcePoint" />
            <mxPoint x="630" y="330" as="targetPoint" />
            <Array as="points">
              <mxPoint x="440" y="290" />
              <mxPoint x="630" y="290" />
            </Array>
          </mxGeometry>
        </mxCell>
        <mxCell id="0zj1C-nigG1xQxZMRHKD-24" value="Renders" style="edgeLabel;html=1;align=center;verticalAlign=middle;resizable=0;points=[];" parent="0zj1C-nigG1xQxZMRHKD-22" vertex="1" connectable="0">
          <mxGeometry x="-0.2243" y="-1" relative="1" as="geometry">
            <mxPoint x="36" as="offset" />
          </mxGeometry>
        </mxCell>
        <mxCell id="0zj1C-nigG1xQxZMRHKD-23" value="" style="endArrow=classic;html=1;rounded=0;entryX=0.5;entryY=0;entryDx=0;entryDy=0;" parent="1" target="0zj1C-nigG1xQxZMRHKD-2" edge="1">
          <mxGeometry width="50" height="50" relative="1" as="geometry">
            <mxPoint x="440" y="250" as="sourcePoint" />
            <mxPoint x="190" y="290" as="targetPoint" />
            <Array as="points">
              <mxPoint x="440" y="290" />
              <mxPoint x="180" y="290" />
            </Array>
          </mxGeometry>
        </mxCell>
        <mxCell id="0zj1C-nigG1xQxZMRHKD-25" value="Renders" style="edgeLabel;html=1;align=center;verticalAlign=middle;resizable=0;points=[];" parent="0zj1C-nigG1xQxZMRHKD-23" vertex="1" connectable="0">
          <mxGeometry x="0.0782" y="-1" relative="1" as="geometry">
            <mxPoint as="offset" />
          </mxGeometry>
        </mxCell>
        <mxCell id="0zj1C-nigG1xQxZMRHKD-27" value="" style="edgeStyle=orthogonalEdgeStyle;rounded=0;orthogonalLoop=1;jettySize=auto;html=1;" parent="1" source="0zj1C-nigG1xQxZMRHKD-26" target="0zj1C-nigG1xQxZMRHKD-1" edge="1">
          <mxGeometry relative="1" as="geometry" />
        </mxCell>
        <mxCell id="0zj1C-nigG1xQxZMRHKD-28" value="Instantiates" style="edgeLabel;html=1;align=center;verticalAlign=middle;resizable=0;points=[];" parent="0zj1C-nigG1xQxZMRHKD-27" vertex="1" connectable="0">
          <mxGeometry x="-0.28" y="1" relative="1" as="geometry">
            <mxPoint as="offset" />
          </mxGeometry>
        </mxCell>
        <mxCell id="0zj1C-nigG1xQxZMRHKD-26" value="Router" style="rounded=0;whiteSpace=wrap;html=1;" parent="1" vertex="1">
          <mxGeometry x="380" y="80" width="120" height="60" as="geometry" />
        </mxCell>
        <mxCell id="0zj1C-nigG1xQxZMRHKD-29" value="AppConfigService" style="rounded=0;whiteSpace=wrap;html=1;" parent="1" vertex="1">
          <mxGeometry x="120" y="190" width="120" height="60" as="geometry" />
        </mxCell>
        <mxCell id="7XTS30OKe321MT3zy4zL-3" value="" style="endArrow=classic;html=1;rounded=0;fontSize=8;exitX=0;exitY=0.5;exitDx=0;exitDy=0;" parent="1" source="0zj1C-nigG1xQxZMRHKD-3" edge="1">
          <mxGeometry width="50" height="50" relative="1" as="geometry">
            <mxPoint x="500" y="780" as="sourcePoint" />
            <mxPoint x="460" y="480" as="targetPoint" />
            <Array as="points">
              <mxPoint x="460" y="360" />
            </Array>
          </mxGeometry>
        </mxCell>
        <mxCell id="7XTS30OKe321MT3zy4zL-4" value="Pagination Event" style="edgeLabel;html=1;align=center;verticalAlign=middle;resizable=0;points=[];fontSize=11;" parent="7XTS30OKe321MT3zy4zL-3" vertex="1" connectable="0">
          <mxGeometry x="-0.4" y="1" relative="1" as="geometry">
            <mxPoint x="16" y="-1" as="offset" />
          </mxGeometry>
        </mxCell>
      </root>
    </mxGraphModel>
  </diagram>
</mxfile>
